<svg xmlns="http://www.w3.org/2000/svg" version="1.0" preserveAspectRatio="xMidYMid meet"
    viewBox="294.9 425.17 562.65 252.83">
    <g transform="translate(0.000000,1200.000000) scale(0.100000,-0.100000)" fill="#000000" stroke="none" stroke-width="100px">
        <path
            d="M2957 7743 c-13 -12 -7 -51 9 -57 9 -3 54 -6 100 -6 l84 0 0 -1195 0 -1194 -97 -3 -98 -3 -3 -32 -3 -33 245 0 246 0 0 35 0 35 -95 0 -95 0 -2 1113 c-2 611 0 1121 3 1132 9 27 0 56 134 -440 142 -525 359 -1323 419 -1540 24 -88 54 -199 66 -247 l23 -88 228 0 229 0 4 23 c3 12 15 63 26 112 12 50 27 117 35 150 8 33 25 108 39 167 14 59 60 254 102 435 79 344 116 503 184 793 23 96 52 225 66 285 14 61 38 164 55 229 16 65 29 121 29 122 0 2 5 4 10 4 7 0 9 -376 8 -1122 l-3 -1123 -97 -3 -98 -3 0 -34 0 -35 551 0 550 0 -3 33 -3 32 -97 3 -98 3 0 1194 0 1194 98 3 97 3 0 30 0 30 -480 0 -480 0 -36 -150 c-20 -82 -53 -222 -74 -310 -20 -88 -50 -214 -65 -280 -65 -279 -104 -448 -135 -580 -18 -77 -50 -212 -70 -300 -35 -151 -54 -219 -60 -213 -2 2 -37 136 -79 298 -42 162 -108 417 -146 565 -39 149 -106 410 -150 582 -44 171 -86 329 -93 350 l-12 38 -481 3 c-264 1 -484 -1 -487 -5z">
        </path>
        <path
            d="M7575 7498 c-28 -82 -655 -2040 -655 -2047 0 -8 89 -41 97 -37 2 2 663 2055 663 2060 0 4 -88 36 -97 36 -2 0 -6 -6 -8 -12z">
        </path>
        <path
            d="M6377 6678 c-238 -137 -364 -215 -358 -221 5 -5 171 -103 368 -217 l358 -207 22 39 c13 22 23 43 23 47 0 3 -131 82 -290 175 l-290 168 290 167 c159 91 289 171 289 176 0 6 -10 27 -22 47 l-23 37 -367 -211z">
        </path>
        <path
            d="M7828 6845 c-19 -40 -20 -47 -8 -55 8 -5 137 -80 287 -166 150 -86 270 -160 268 -165 -3 -4 -131 -80 -285 -170 -154 -89 -280 -167 -280 -173 0 -6 10 -27 23 -47 l22 -36 346 201 c190 111 356 208 368 216 21 14 9 23 -316 210 -186 106 -353 202 -370 213 l-32 19 -23 -47z">
        </path>
    </g>
</svg>