<svg xmlns="http://www.w3.org/2000/svg" version="1.0" preserveAspectRatio="xMidYMid meet" viewBox="294.9 425 563.31 253">

<g transform="translate(0.000000,1200.000000) scale(0.100000,-0.100000)" fill="#ffffff" stroke="none">
<path d="M2954 7736 c-3 -8 -4 -23 -2 -33 3 -16 16 -18 101 -21 l97 -3 0 -1194 0 -1194 -97 -3 -98 -3 -3 -32 -3 -33 245 0 246 0 0 35 0 35 -95 0 -95 0 -2 1109 c-2 611 0 1120 3 1133 8 29 10 23 44 -107 14 -55 41 -154 59 -220 19 -66 95 -347 171 -625 75 -278 158 -584 185 -680 26 -96 78 -289 116 -427 l68 -253 228 0 228 0 5 23 c3 12 19 83 36 157 17 74 44 189 59 255 16 66 56 237 89 380 33 143 76 328 96 410 19 83 55 238 80 345 41 179 66 283 139 596 32 136 42 165 50 144 3 -8 5 -514 4 -1125 l-3 -1110 -97 -3 -98 -3 0 -34 0 -35 550 0 550 0 0 35 0 35 -100 0 -100 0 0 1195 0 1194 98 3 97 3 0 30 0 30 -480 0 -480 0 -36 -150 c-20 -82 -54 -222 -74 -310 -48 -208 -76 -327 -119 -510 -75 -320 -118 -506 -152 -655 -34 -146 -53 -214 -59 -208 -2 2 -35 128 -74 281 -39 152 -85 328 -101 390 -16 61 -72 279 -125 482 -151 588 -167 649 -177 668 -8 16 -42 17 -489 17 -408 0 -480 -2 -485 -14z"/>
<path d="M7575 7498 c-22 -61 -655 -2040 -655 -2047 0 -8 89 -41 97 -36 3 1 663 2052 663 2059 0 3 -87 36 -97 36 -2 0 -6 -6 -8 -12z"/>
<path d="M6380 6680 c-201 -115 -366 -213 -367 -217 -1 -5 163 -103 365 -219 l367 -212 22 40 c13 22 23 43 23 47 0 4 -131 83 -290 175 l-290 168 290 167 c159 91 290 171 290 176 0 6 -10 27 -23 48 l-23 37 -364 -210z"/>
<path d="M7827 6845 l-26 -45 57 -33 c31 -18 162 -93 289 -166 128 -74 230 -137 228 -141 -3 -5 -131 -81 -285 -170 -154 -90 -280 -168 -280 -174 0 -6 10 -27 23 -47 l22 -36 359 208 c198 115 363 212 368 217 4 4 -144 95 -330 202 -185 107 -351 202 -368 212 l-32 19 -25 -46z"/>
</g>
</svg>